<svg id="abbe7500-9f90-4e8f-af92-7a580cf16f72" xmlns="http://www.w3.org/2000/svg" xmlns:xlink="http://www.w3.org/1999/xlink" viewBox="0 0 118.92 43.42"><defs><style>.cls-1{fill:url(#linear-gradient);}.cls-2,.cls-7{isolation:isolate;}.cls-2{font-size:26.32px;fill:#fff;font-family:Roboto-Black, Roboto;font-weight:800;}.cls-3{letter-spacing:-0.02em;}.cls-4{fill:#3f3d56;}.cls-5,.cls-7{opacity:0.1;}.cls-6{fill:#fbbebe;}.cls-8{fill:#ffc107;}</style><linearGradient id="linear-gradient" x1="87.38" y1="154.04" x2="87.38" y2="114.46" gradientTransform="translate(-31.02 -111.89)" gradientUnits="userSpaceOnUse"><stop offset="0" stop-color="gray" stop-opacity="0.25"/><stop offset="0.54" stop-color="gray" stop-opacity="0.12"/><stop offset="1" stop-color="gray" stop-opacity="0.1"/></linearGradient></defs><title>smalllogo</title><path class="cls-1" d="M65.69,38.78a8.85,8.85,0,0,0-.45-2.49,1,1,0,0,0-.18-.22.82.82,0,0,0-.31-.07h-1a.31.31,0,0,0-.27.1v0c-.4-.44-.7-1-1.13-1.41l.19-.05a.21.21,0,0,0,0-.12s0,0,0,0a.47.47,0,0,0,0-.09.11.11,0,0,1,0,0l0-.07,0,0a.16.16,0,0,0,0-.08s0,0,0,0l0-.07s0,0,0,0l0-.09s0,0,0,0l0-.09h0a.53.53,0,0,0-.06-.1h0c-.16-.28-.35-.55-.48-.82a12.87,12.87,0,0,1-.48-1.57,2.13,2.13,0,0,0-.92-1.3c-.23-.11-.54-.22-.56-.48a.51.51,0,0,1,.06-.25,3.07,3.07,0,0,1,.24-.48,1.12,1.12,0,0,1,.1-.16l0,0,.09-.11,0,0,.09-.1,0,0a1.06,1.06,0,0,1,.15-.15.34.34,0,0,0,.1-.13.43.43,0,0,0,0-.16A1.79,1.79,0,0,1,61,26.72a4.67,4.67,0,0,0,.67-1l0-.13a.06.06,0,0,1,0-.05.22.22,0,0,0,0-.09v0a.16.16,0,0,1,0-.09.11.11,0,0,0,0-.06v-.29l0-.09v0s0-.08,0-.11v0l0-.14h0c-.07-.31-.16-.62-.26-.92a3.67,3.67,0,0,0-.22-.53l.16,0a2,2,0,0,1-.12-.21A5.32,5.32,0,0,0,62,21.18a6.57,6.57,0,0,0,.14-1.26,25.36,25.36,0,0,0,.06-3.8v-.06a3.66,3.66,0,0,0,0-.81,3.33,3.33,0,0,0-.46-1.51,1.76,1.76,0,0,0-1.27-.89,1.37,1.37,0,0,1-.28.26,1.16,1.16,0,0,1-.33-.51,2.81,2.81,0,0,0,2.35-2.46s0-.08,0-.14V9.47a.34.34,0,0,0,0-.1h0s0-.08,0-.12v0l0-.11h0a3.67,3.67,0,0,0-.31-.76,2.63,2.63,0,0,0,.22-.82s0-.1,0-.15V7.1h0a2.92,2.92,0,0,0-.79-1.89,1.68,1.68,0,0,0,.15-.3h0l0-.09h0a.32.32,0,0,1,0-.09h0s0-.06,0-.09h0s0-.06,0-.1a.25.25,0,0,1,0-.1V4.17a1.73,1.73,0,1,0-3.45.26,1.25,1.25,0,0,0,0,.19,2.81,2.81,0,0,0-1.56,2.21,2.57,2.57,0,0,0,0,.48,2.79,2.79,0,0,0-.43,1.31h0v.24a2.82,2.82,0,0,0,1.09,2.25,2.21,2.21,0,0,0,.56.58,1.63,1.63,0,0,1,.08.37,1,1,0,0,1-.54,1h-.2a3,3,0,0,0-1.83,1.43,3.16,3.16,0,0,0-.17.52l-.05,0a7.65,7.65,0,0,0-1,2.34,4.91,4.91,0,0,1-.35,1.26,1.45,1.45,0,0,0-.11.25,1.88,1.88,0,0,0,0,.41,3.64,3.64,0,0,1-.22.71c0,.15,0,.3,0,.44a3.79,3.79,0,0,1-.28.73c-.16.43-.16.91-.28,1.35a.5.5,0,0,1-.08.2.71.71,0,0,1-.31.16.7.7,0,0,0-.31.46,2.18,2.18,0,0,0,0,.57l.06.74-.84.25L50,25.39a4.33,4.33,0,0,0-1.14.48,2.21,2.21,0,0,0-.71.86,4.14,4.14,0,0,0-.27,1.13,16.87,16.87,0,0,1-.74,3.2l-.09.23h0l-.09.24s0,0,0,0a1.08,1.08,0,0,0-.08.19,1.54,1.54,0,0,1-.1.24L50,33.06a.45.45,0,0,0,0,.12c.12.79.06,1.58.16,2.37a2.34,2.34,0,0,0,.09.38.43.43,0,0,0-.16.26,1.25,1.25,0,0,0,0,.51c0,.4.07.81.1,1.2a3.23,3.23,0,0,1,0,.44,4.7,4.7,0,0,1-.28.74.68.68,0,0,0,.13.74.52.52,0,0,0,.5,0,1.09,1.09,0,0,0,.41-.32A16.18,16.18,0,0,0,52.33,37a4,4,0,0,0,.34-.6,4.83,4.83,0,0,0,.16-.5,3.65,3.65,0,0,1,.28-.64c0-.12.29-.41.23-.54s-1-.43-1.17-.5a.51.51,0,0,0-.42,0l-.06,0c0-.32-.06-.64-.07-1l.38,0c0-.17,0-.36,0-.55s0-.34,0-.52c0-.4,0-.81,0-1.21a5.49,5.49,0,0,0,0-.7c0-.37-.16-.7-.19-1.07a.48.48,0,0,1,.18-.08h0a1.56,1.56,0,0,1,.31,0h.07a2.62,2.62,0,0,0,1.28-.35c.4-.2.78-.47,1.17-.69l.15-.07.06,0L55,28l.07-.05h0c.24-.12.47-.22.69-.34a.3.3,0,0,1,0,.08.51.51,0,0,0,.49.17,7.86,7.86,0,0,0-.69,2,6.06,6.06,0,0,0,.7,3l1.3,3.07c.15.34.34.72.69.81a1.11,1.11,0,0,0,.66-.13,12.51,12.51,0,0,0,1.68-1.07h0A5.66,5.66,0,0,1,61.8,37l.91,1.51a.39.39,0,0,0,0,.21A1.44,1.44,0,0,0,63,39a4.26,4.26,0,0,1,1.09,2.24,1.44,1.44,0,0,0,.18.61.9.9,0,0,0,1.14.12.69.69,0,0,0,.27-.24.91.91,0,0,0,.12-.35,5.92,5.92,0,0,0,.12-.93A6.05,6.05,0,0,0,65.69,38.78ZM60.46,11.24l.19-.13a2.72,2.72,0,0,1-.59,1h0l-.19.19v-.05c0-.14,0-.3,0-.46A2,2,0,0,0,60.46,11.24ZM55.3,22.77v0a.42.42,0,0,1,.13.14.53.53,0,0,0,0,.49c.07.13.22.25.19.4s-.22.2-.37.23l-.6.12v0a1.3,1.3,0,0,0-.07-.48A1.43,1.43,0,0,0,55.3,22.77Z"/><text class="cls-2" transform="translate(1.12 41.07)">#<tspan class="cls-3" x="15.29" y="0">V</tspan><tspan x="32.11" y="0">endMO</tspan></text><path class="cls-4" d="M61.38,5.76a1.75,1.75,0,0,0-.6-2.38A1.73,1.73,0,0,0,58.4,4a1.69,1.69,0,0,0-.22,1.2A2.77,2.77,0,0,0,56.6,7.82a2.79,2.79,0,1,0,5.13,1.52V9.21a2.74,2.74,0,0,0-.35-3.45Z"/><g class="cls-5"><path d="M58.16,4.75h0s0-.06,0-.09h0A.41.41,0,0,0,58.16,4.75Z"/><path d="M62.15,7.59a2.77,2.77,0,0,1-.44,1.18V8.9a2.78,2.78,0,0,1-5.56.22c0,.07,0,.15,0,.22a2.79,2.79,0,1,0,5.58,0V9.21a2.74,2.74,0,0,0,.44-1.75A.15.15,0,0,1,62.15,7.59Z"/><path d="M61.61,4.63a1.53,1.53,0,0,1-.23.66l.14.16a1.18,1.18,0,0,0,.09-.38A1.62,1.62,0,0,0,61.61,4.63Z"/></g><path class="cls-6" d="M50.15,35.68a1.37,1.37,0,0,0,.13.45.53.53,0,0,0,.37.28.73.73,0,0,0,.41-.12,1.37,1.37,0,0,0,.64-.52,1.48,1.48,0,0,0,.09-.81l-.16-2.12c-.41,0-.8,0-1.21,0S50,33,50,33.35C50.09,34.12,50.05,34.9,50.15,35.68Z"/><path class="cls-6" d="M61.92,37.11l1,1.55a.39.39,0,0,0,.21.19.28.28,0,0,0,.2,0,2.46,2.46,0,0,0,.81-.66,1.5,1.5,0,0,0,.38-.58.78.78,0,0,0-.19-.7c-.12-.1-.24-.18-.37-.27-.76-.51-1.09-1.47-1.84-2a.25.25,0,0,0-.15-.06.37.37,0,0,0-.16.05l-1,.55c-.44.25-.31.27,0,.53A5.45,5.45,0,0,1,61.92,37.11Z"/><path class="cls-4" d="M52.23,34.44a.51.51,0,0,0-.42,0,.43.43,0,0,0-.22.35c0,.15,0,.3-.06.43a1.45,1.45,0,0,1-.43.58.51.51,0,0,1-.26.18c-.13,0-.28,0-.42,0a.47.47,0,0,0-.34.33,1.4,1.4,0,0,0,0,.5L50.18,38a1.62,1.62,0,0,1,0,.44,3.79,3.79,0,0,1-.28.73.67.67,0,0,0,.14.73.48.48,0,0,0,.49.05A1.34,1.34,0,0,0,51,39.6a16.26,16.26,0,0,0,1.43-2.46,3.81,3.81,0,0,0,.34-.58,4.66,4.66,0,0,0,.16-.49,4.3,4.3,0,0,1,.27-.62c.06-.12.3-.4.24-.53S52.43,34.51,52.23,34.44Z"/><path class="cls-4" d="M63.82,37.71a1.25,1.25,0,0,1-.67.59.58.58,0,0,0-.24.11.41.41,0,0,0,0,.4,1.31,1.31,0,0,0,.26.32,4.11,4.11,0,0,1,1.1,2.21,1.31,1.31,0,0,0,.17.59.91.91,0,0,0,1.14.12.71.71,0,0,0,.28-.23,1,1,0,0,0,.12-.35,7.48,7.48,0,0,0,.12-.92,10.18,10.18,0,0,0-.34-1.73,8.64,8.64,0,0,0-.45-2.45.79.79,0,0,0-.18-.22.68.68,0,0,0-.31-.08h-1a.22.22,0,0,0-.28.15.22.22,0,0,0,.06.23C63.73,36.88,64.08,37.21,63.82,37.71Z"/><path class="cls-4" d="M55.61,23a.55.55,0,0,0-.14.68c.08.13.22.24.19.39s-.22.2-.36.22a33.06,33.06,0,0,0-3.95,1L50,25.65a5.08,5.08,0,0,0-1.14.47,2.25,2.25,0,0,0-.71.85,3.84,3.84,0,0,0-.27,1.11,13.2,13.2,0,0,1-1.09,4.06l3.3,1.08a4.36,4.36,0,0,0,1,.25,3.49,3.49,0,0,0,1,0c0-.75,0-1.51-.06-2.24a5.48,5.48,0,0,0,0-.7c0-.35-.16-.7-.19-1,.14-.13.38-.1.57-.09a2.75,2.75,0,0,0,1.3-.35c.41-.21.77-.47,1.17-.67a7.07,7.07,0,0,0,1.93-1.14,20.1,20.1,0,0,0-1,2.85,6,6,0,0,0,.7,3l1.3,3c.15.34.34.7.69.79a1.11,1.11,0,0,0,.66-.13c1.2-.56,2.16-1.62,3.43-2A6.39,6.39,0,0,0,61.63,33a10.78,10.78,0,0,1-.49-1.55,2,2,0,0,0-.92-1.28c-.23-.12-.54-.22-.55-.47a.36.36,0,0,1,.06-.23,3.2,3.2,0,0,1,.77-1.14.32.32,0,0,0,.1-.13.19.19,0,0,0,0-.15A1.86,1.86,0,0,1,61,26.92a4.15,4.15,0,0,0,.67-1,3.2,3.2,0,0,0-.23-2.08,1.84,1.84,0,0,0-.39-.76,1.88,1.88,0,0,0-1.23-.47C58.44,22.45,56.76,22.07,55.61,23Z"/><g class="cls-5"><path d="M61.07,25.89A1.72,1.72,0,0,0,60.63,27v.15a.64.64,0,0,1-.1.13,3.25,3.25,0,0,0-.79,1.14.65.65,0,0,0-.06.23A.44.44,0,0,0,60,29a2.65,2.65,0,0,1,.54-.66.34.34,0,0,0,.1-.13.38.38,0,0,0,0-.15,1.75,1.75,0,0,1,.44-1.12,4.63,4.63,0,0,0,.67-1,2.12,2.12,0,0,0,0-1.17.53.53,0,0,0,0,.12A3.59,3.59,0,0,1,61.07,25.89Z"/><path d="M55.46,23.17a.26.26,0,0,0,.2-.19v-.06l0,0A.43.43,0,0,0,55.46,23.17Z"/><path d="M51.07,32.45a5,5,0,0,1-1-.25l-2.92-1c-.12.32-.24.62-.38.92l3.3,1.08a5.74,5.74,0,0,0,1,.25,3.5,3.5,0,0,0,1-.05c0-.35,0-.7,0-1A2.94,2.94,0,0,1,51.07,32.45Z"/><path d="M59.08,35.66a1,1,0,0,1-.65.14c-.35-.08-.54-.46-.69-.79l-1.3-3a9.08,9.08,0,0,1-.69-2.06.71.71,0,0,0,0,.15,5.9,5.9,0,0,0,.7,3l1.3,3c.15.34.34.7.69.79a1.06,1.06,0,0,0,.65-.13c1.2-.56,2.17-1.63,3.44-2a2.53,2.53,0,0,0-.4-.92C61,34.26,60.17,35.15,59.08,35.66Z"/><path d="M56.73,26.15a6.65,6.65,0,0,1-1.93,1.14c-.39.2-.77.47-1.17.67a2.63,2.63,0,0,1-1.3.35c-.2,0-.42,0-.57.09,0,.34.13.64.18,1a1.27,1.27,0,0,1,.39,0,2.75,2.75,0,0,0,1.3-.35c.41-.21.78-.47,1.17-.67s.92-.41,1.33-.68A10.12,10.12,0,0,0,56.73,26.15Z"/></g><path class="cls-6" d="M57.89,12.5a1.1,1.1,0,0,1-.34.89,2.71,2.71,0,0,0-.25.19.67.67,0,0,0,0,1l.08.08a1.35,1.35,0,0,0,.91.06,5.26,5.26,0,0,0,1.18-.31,2,2,0,0,0,.94-.76,1.16,1.16,0,0,1-.53-.95c0-.38.09-.8-.16-1.1a1,1,0,0,0-1-.19c-.18.05-.35.12-.53.16s-.38,0-.44.09S57.87,12.31,57.89,12.5Z"/><path class="cls-7" d="M57.89,12.5a1.1,1.1,0,0,1-.34.89,2.71,2.71,0,0,0-.25.19.67.67,0,0,0,0,1l.08.08a1.35,1.35,0,0,0,.91.06,5.26,5.26,0,0,0,1.18-.31,2,2,0,0,0,.94-.76,1.16,1.16,0,0,1-.53-.95c0-.38.09-.8-.16-1.1a1,1,0,0,0-1-.19c-.18.05-.35.12-.53.16s-.38,0-.44.09S57.87,12.31,57.89,12.5Z"/><circle class="cls-6" cx="58.91" cy="10.52" r="1.96"/><path class="cls-6" d="M52.71,25.56a1.09,1.09,0,0,1-.19.44,2,2,0,0,0-.23,1.35,1.41,1.41,0,0,0,.82,1,.59.59,0,0,0,.55,0,1.9,1.9,0,0,1-.26-1.25.4.4,0,0,1,.06-.23.14.14,0,0,1,.2,0h0a2.17,2.17,0,0,0,.15.79c0,.1.11.2.22.2s.19-.2.19-.35a4.06,4.06,0,0,0-.35-1.77,1.61,1.61,0,0,1-.3-.6.37.37,0,0,0-.07-.2.23.23,0,0,0-.12-.06c-.17-.05-.57-.19-.7-.05S52.74,25.36,52.71,25.56Z"/><path class="cls-8" d="M55.62,15.14c-.22,0-.41.18-.53.37a7.39,7.39,0,0,0-1,2.31,4.76,4.76,0,0,1-.35,1.24,1.45,1.45,0,0,0-.11.25,1.82,1.82,0,0,0,0,.41,3.35,3.35,0,0,1-.22.7,3.27,3.27,0,0,0,0,.44,3.62,3.62,0,0,1-.28.71,10.41,10.41,0,0,0-.26,1.33.42.42,0,0,1-.09.19.73.73,0,0,1-.31.17.65.65,0,0,0-.3.45,2.58,2.58,0,0,0,0,.55l.09,1.16c.09-.05.15-.15.23-.21a.69.69,0,0,1,.53-.05l.26,0a1.12,1.12,0,0,1,.73.32c.14-.22.06-.53.28-.67a2.14,2.14,0,0,1,.22-.1.5.5,0,0,0,.23-.41,1.42,1.42,0,0,0-.07-.49A1.37,1.37,0,0,0,55.3,23a8,8,0,0,0,.32-1.28,32.63,32.63,0,0,0,.61-5.21,2.76,2.76,0,0,0-.08-.86C56.06,15.42,55.91,15.17,55.62,15.14Z"/><path class="cls-7" d="M55.62,15.14c-.22,0-.41.18-.53.37a7.39,7.39,0,0,0-1,2.31,4.76,4.76,0,0,1-.35,1.24,1.45,1.45,0,0,0-.11.25,1.82,1.82,0,0,0,0,.41,3.35,3.35,0,0,1-.22.7,3.27,3.27,0,0,0,0,.44,3.62,3.62,0,0,1-.28.71,10.41,10.41,0,0,0-.26,1.33.42.42,0,0,1-.09.19.73.73,0,0,1-.31.17.65.65,0,0,0-.3.45,2.58,2.58,0,0,0,0,.55l.09,1.16c.09-.05.15-.15.23-.21a.69.69,0,0,1,.53-.05l.26,0a1.12,1.12,0,0,1,.73.32c.14-.22.06-.53.28-.67a2.14,2.14,0,0,1,.22-.1.5.5,0,0,0,.23-.41,1.42,1.42,0,0,0-.07-.49A1.37,1.37,0,0,0,55.3,23a8,8,0,0,0,.32-1.28,32.63,32.63,0,0,0,.61-5.21,2.76,2.76,0,0,0-.08-.86C56.06,15.42,55.91,15.17,55.62,15.14Z"/><path class="cls-8" d="M60.56,13.27a2.33,2.33,0,0,1-1.18.69,6.57,6.57,0,0,1-1.38.2.67.67,0,0,1-.42,0,.29.29,0,0,1-.18-.35.38.38,0,0,0,.06-.13c0-.12-.17-.13-.29-.09A3,3,0,0,0,55.34,15,4.44,4.44,0,0,0,55,16.24a10.36,10.36,0,0,0-.1,3.51,11.49,11.49,0,0,1,.35,1.84c0,.35-.06.7,0,1.05a.48.48,0,0,0,.08.35,1,1,0,0,1,.18.18c.06.11,0,.29.06.41s.32,0,.45-.06a3.76,3.76,0,0,1,2.43-.62c1,.12,2,.66,3,.38a1.42,1.42,0,0,1-.14-.23,7,7,0,0,1,.28-5,6.39,6.39,0,0,0,.69-1.59,3.06,3.06,0,0,0,0-.8,3.45,3.45,0,0,0-.45-1.5A1.91,1.91,0,0,0,60.56,13.27Z"/><path class="cls-6" d="M55.82,26.06a2.19,2.19,0,0,0-.11.67,2.92,2.92,0,0,0,0,.66.91.91,0,0,0,.19.51.48.48,0,0,0,.49.18.51.51,0,0,0,.3-.34,2.11,2.11,0,0,0,.08-.45A6.71,6.71,0,0,0,57.13,26a.32.32,0,0,0,0-.16.89.89,0,0,0-.71-.36C56.15,25.49,55.91,25.84,55.82,26.06Z"/><path class="cls-7" d="M61.48,14.92c0,.4.34.69.48,1a1.67,1.67,0,0,1,.11.53A26,26,0,0,1,62,20.23a7.5,7.5,0,0,1-.15,1.24,6.82,6.82,0,0,1-1.24,2.31,1.59,1.59,0,0,1-.26.32,2.48,2.48,0,0,1-.5.31l-1.76.85a4.59,4.59,0,0,0-.61.35,1.79,1.79,0,0,0-.51.67c-.34-.17-.69-.32-1-.5-.08,0-.16-.08-.18-.17s.1-.21.19-.29a1.67,1.67,0,0,0,.29-.6c.28-.68,1-1.1,1.25-1.79a3.22,3.22,0,0,1,.29-.77,1.85,1.85,0,0,1,.33-.29,5.79,5.79,0,0,0,.73-.76,1.15,1.15,0,0,0,.24-.35,1.87,1.87,0,0,0,.06-.62,7.73,7.73,0,0,1,.51-2c.17-.61.25-1.26.48-1.86A2.21,2.21,0,0,1,61.48,14.92Z"/><path class="cls-8" d="M61.7,14.92c0,.4.34.69.48,1a1.66,1.66,0,0,1,.1.53,24.58,24.58,0,0,1-.05,3.74,8.77,8.77,0,0,1-.16,1.24,7,7,0,0,1-1.25,2.31,1.48,1.48,0,0,1-.76.63l-1.74.85a4,4,0,0,0-.61.35,1.79,1.79,0,0,0-.51.67c-.34-.17-.69-.32-1-.5-.08,0-.17-.08-.18-.17s.1-.21.19-.29a1.86,1.86,0,0,0,.29-.6c.28-.68,1-1.1,1.24-1.79a3.27,3.27,0,0,1,.31-.77,1.93,1.93,0,0,1,.34-.29,7.47,7.47,0,0,0,.73-.76,1.32,1.32,0,0,0,.23-.35,1.64,1.64,0,0,0,.06-.62,8.17,8.17,0,0,1,.51-2c.18-.61.25-1.26.48-1.86A2.27,2.27,0,0,1,61.7,14.92Z"/><path class="cls-4" d="M59.87,7.5a2.87,2.87,0,0,0-1.74.36l.24,0a2.79,2.79,0,0,1,1.06,5.17,2.79,2.79,0,0,0,.44-5.55Z"/><path class="cls-4" d="M60.74,9.05a1.28,1.28,0,0,1,0,1,.83.83,0,0,0,0-.12,1.86,1.86,0,0,0-2.37-.72,1.91,1.91,0,0,0-1.14,1.1,1.64,1.64,0,0,1,1.17-1.94A1.82,1.82,0,0,1,60.74,9.05Z"/><g class="cls-5"><path d="M60.74,10a2.8,2.8,0,0,0-1.88-2.41,2.5,2.5,0,0,0-.74.3h.23A2.85,2.85,0,0,1,60.74,10Z"/><path d="M61.19,7.92a2.81,2.81,0,0,0-1.87-2.41,2.85,2.85,0,0,0-.75.29,1,1,0,0,1,.24,0A2.82,2.82,0,0,1,61.19,7.92Z"/><path d="M61.2,4.88a1.69,1.69,0,0,0-1.12-1.44,1.92,1.92,0,0,0-.44.17.44.44,0,0,1,.15,0A1.66,1.66,0,0,1,61.2,4.88Z"/><path d="M62.24,9.59a2.76,2.76,0,0,1-2.16,2.94,3,3,0,0,1-.65.52,2.79,2.79,0,0,0,2.9-2.69A2.85,2.85,0,0,0,62.24,9.59Z"/></g></svg>