<svg xmlns="http://www.w3.org/2000/svg" xmlns:xlink="http://www.w3.org/1999/xlink" width="1004" height="649.479" viewBox="0 0 1004 649.479">
  <defs>
    <linearGradient id="linear-gradient" x1="0.736" y1="-0.781" x2="0.736" y2="0.219" gradientUnits="objectBoundingBox">
      <stop offset="0" stop-color="gray" stop-opacity="0.251"/>
      <stop offset="0.54" stop-color="gray" stop-opacity="0.122"/>
      <stop offset="1" stop-color="gray" stop-opacity="0.102"/>
    </linearGradient>
  </defs>
  <g id="Group_6" data-name="Group 6" transform="translate(0.02 -0.045)">
    <path id="Path_1" data-name="Path 1" d="M975.731,603.315c-21.474,17.821-52.052,25.206-81.607,29.855l-4.976.768c-51.673,7.7-104.386,9.272-156.853,10.834-146.337,4.323-293.062,8.646-439-1.341-64.545-4.411-130.686-12.14-187.255-38.554l-1.473-.688-2.2-1.05a198.59,198.59,0,0,1-28.726-16.851C57.48,574.766,44.15,560.7,37.1,544.02c-11.046-26.167-5.214-55.581,7.411-81.166S76.1,414.216,92.452,390.122c4.8-7.058,9.352-14.38,13.586-21.888,26.467-47.076,39.595-101.572,11.848-146.946a201.673,201.673,0,0,0-11.848-16.762c-6.767-8.822-13.648-17.645-18.3-27.411-10.852-22.726-8.514-48.285-4.561-72.564,5.293-32.281,15.042-67.05,45.329-87.218C159.979-3.612,204.646-2.544,243.7,4.981c60.724,11.646,116.773,36,173.351,57.972S532.892,105,595.107,107.162c54.928,1.914,119.005-12.351,155.477-49.476,35.422-36.031,101.987-38.766,149.981-17,45.8,20.777,75.414,64.73,73.226,108.63-2.788,54.787-48.461,98.652-84.607,145.3-6.008,7.755-11.769,15.6-17.01,23.573-17.133,26.052-29.246,57.345-17.451,85.471,6.617,15.748,19.242,27.764,34.46,38.254,34.1,23.494,81.166,39.3,102.34,72.194C1009.759,542.4,1003,580.694,975.731,603.315Z" transform="translate(-3.684 0)" fill="#ffc107" opacity="0.1"/>
    <g id="Group_1" data-name="Group 1" transform="translate(-0.02 238.513)" opacity="0.2">
      <path id="Path_2" data-name="Path 2" d="M245.819,646.813c.282.573.547,1.147.776,1.711q-8.469,1.041-16.895,1.553a12.61,12.61,0,0,1-7.993.379c-1.667.053-3.344.079-5,.106a20.211,20.211,0,0,1,0-2.312c.344-5.346,2.8-9.908,7.058-12.069s9.4-1.438,13.886,1.429A23.426,23.426,0,0,1,245.819,646.813Z" transform="translate(-25.498 -313.278)" fill="#3f3d56"/>
      <path id="Path_3" data-name="Path 3" d="M233.656,622.8a23.471,23.471,0,0,1,2.585,11.99c-.344,5.293-2.8,9.89-7.058,12.051-.3.15-.591.282-.882.415a12.611,12.611,0,0,1-7.993.379,17.826,17.826,0,0,1-4.993-2.206,24.35,24.35,0,0,1-10.737-21.174c.344-5.293,2.788-9.907,7.058-12.069s9.4-1.438,13.886,1.438A23.432,23.432,0,0,1,233.656,622.8Z" transform="translate(-24.071 -310.451)" fill="#3f3d56"/>
      <ellipse id="Ellipse_1" data-name="Ellipse 1" cx="14.848" cy="19.436" rx="14.848" ry="19.436" transform="matrix(0.892, -0.452, 0.452, 0.892, 163.577, 287.208)" fill="#3f3d56"/>
      <ellipse id="Ellipse_2" data-name="Ellipse 2" cx="14.848" cy="19.436" rx="14.848" ry="19.436" transform="matrix(0.892, -0.452, 0.452, 0.892, 152.847, 266.02)" fill="#3f3d56"/>
      <ellipse id="Ellipse_3" data-name="Ellipse 3" cx="14.848" cy="19.436" rx="14.848" ry="19.436" transform="matrix(0.892, -0.452, 0.452, 0.892, 142.104, 244.824)" fill="#3f3d56"/>
      <path id="Path_4" data-name="Path 4" d="M41.022,405.9a73.2,73.2,0,0,1-8.611-4.764l31.911-23.362-37.5,19.409A71.231,71.231,0,0,1,.139,347.519l63.777.609L-.02,337.443a71.135,71.135,0,1,1,140.788,17.918,71.172,71.172,0,0,1,13.1,7.94l-33.287,46.326,39.983-40.583a71.2,71.2,0,0,1,19.956,64.765,71.126,71.126,0,1,1-99.746,50.535,71.143,71.143,0,0,1-39.754-78.457Z" transform="translate(0.02 -270.344)" fill="#ffc107"/>
      <path id="Path_5" data-name="Path 5" d="M184.821,403.33a70.78,70.78,0,0,1,6.3,46.106,71.126,71.126,0,1,1-99.746,50.535C77.4,493.486,181.213,396.211,184.821,403.33Z" transform="translate(-10.579 -285.961)" opacity="0.1"/>
    </g>
    <g id="Group_2" data-name="Group 2" transform="translate(837.662 237.409)" opacity="0.2">
      <path id="Path_6" data-name="Path 6" d="M1007.684,652.959c-.132.574-.273,1.129-.441,1.676q-6.687-4.191-13.013-8.761a11.647,11.647,0,0,1-5.946-4.411c-1.226-.935-2.444-1.888-3.644-2.841a15.521,15.521,0,0,1,1.359-1.65c3.361-3.635,7.79-5.47,12.113-4.526s7.57,4.464,9.114,9.149A21.645,21.645,0,0,1,1007.684,652.959Z" transform="translate(-953.617 -311.852)" fill="#3f3d56"/>
      <path id="Path_7" data-name="Path 7" d="M1012.43,628.63a21.667,21.667,0,0,1-5.152,10.11c-3.361,3.608-7.781,5.452-12.113,4.5-.3-.062-.582-.141-.882-.229a11.646,11.646,0,0,1-5.946-4.411,16.055,16.055,0,0,1-2.285-4.491,22.558,22.558,0,0,1,4.693-21.465c3.361-3.626,7.79-5.461,12.113-4.517s7.57,4.455,9.114,9.14A21.645,21.645,0,0,1,1012.43,628.63Z" transform="translate(-953.67 -308.988)" fill="#3f3d56"/>
      <ellipse id="Ellipse_4" data-name="Ellipse 4" cx="17.971" cy="13.728" rx="17.971" ry="13.728" transform="matrix(0.214, -0.977, 0.977, 0.214, 32.832, 309.908)" fill="#3f3d56"/>
      <ellipse id="Ellipse_5" data-name="Ellipse 5" cx="17.971" cy="13.728" rx="17.971" ry="13.728" transform="matrix(0.214, -0.977, 0.977, 0.214, 37.516, 288.446)" fill="#3f3d56"/>
      <ellipse id="Ellipse_6" data-name="Ellipse 6" cx="17.971" cy="13.728" rx="17.971" ry="13.728" transform="matrix(0.214, -0.977, 0.977, 0.214, 42.217, 266.986)" fill="#3f3d56"/>
      <path id="Path_8" data-name="Path 8" d="M990.812,363.587a64.835,64.835,0,0,1-3.388-8.443l36.507,1.923-38.174-8.055a65.814,65.814,0,0,1,9.908-51.17l45.329,37.707-39.577-44.994A65.77,65.77,0,1,1,1091.8,385.66a65.654,65.654,0,0,1,4.764,13.322l-50.949,13.754,52.361-5.7a65.808,65.808,0,0,1-23.556,58.06,65.771,65.771,0,1,1-100.981-22.056A65.77,65.77,0,0,1,990.812,363.6Z" transform="translate(-949.476 -269.092)" fill="#ffc107"/>
      <path id="Path_9" data-name="Path 9" d="M1096.857,449.329a65.408,65.408,0,0,1-22.435,36.71,65.771,65.771,0,1,1-100.981-22.056C967.221,451.137,1098.437,442.121,1096.857,449.329Z" transform="translate(-949.476 -290.016)" opacity="0.1"/>
    </g>
    <path id="Path_10" data-name="Path 10" d="M110.26,115.56V592.454a14.671,14.671,0,0,0,14.663,14.672H926.657a14.672,14.672,0,0,0,14.672-14.672h0V115.56Z" transform="translate(-12.987 -13.603)" fill="#fff"/>
    <path id="Path_11" data-name="Path 11" d="M934.023,83.3H117.53a7.269,7.269,0,0,0-7.27,7.27h0v21.174H941.328V90.57a7.269,7.269,0,0,0-7.27-7.27Z" transform="translate(-12.987 -9.804)" fill="#3f3d56"/>
    <circle id="Ellipse_7" data-name="Ellipse 7" cx="3.397" cy="3.397" r="3.397" transform="translate(107.048 84.109)" fill="#fa5959" opacity="0.8"/>
    <circle id="Ellipse_8" data-name="Ellipse 8" cx="3.397" cy="3.397" r="3.397" transform="translate(116.4 84.109)" fill="#fed253" opacity="0.8"/>
    <circle id="Ellipse_9" data-name="Ellipse 9" cx="3.397" cy="3.397" r="3.397" transform="translate(125.743 84.109)" fill="#8ccf4d" opacity="0.8"/>
    <rect id="Rectangle_1" data-name="Rectangle 1" width="638.599" height="278.867" rx="6.13" transform="translate(193.98 289.406)" fill="#3f3d56" opacity="0.1"/>
    <rect id="Rectangle_2" data-name="Rectangle 2" width="335.559" height="35.651" rx="9.19" transform="translate(312.231 410.687)" fill="#fff"/>
    <path id="Path_13" data-name="Path 13" d="M459.5,516.765c-.882-5.038-.45-10.463-2.753-15a3.4,3.4,0,0,0-1.059-1.35,3.682,3.682,0,0,0-1.879-.424c-2.082-.088-4.173-.106-6.255-.062a1.818,1.818,0,0,0-1.579.6l-.079.176c-2.391-2.647-4.2-5.99-6.767-8.452.362-.124.732-.247,1.1-.344a7.277,7.277,0,0,0-.141-.741.355.355,0,0,0-.053-.221,3.75,3.75,0,0,1-.141-.5c-.053-.168-.053-.159-.079-.247l-.159-.459c0-.088-.071-.168-.1-.247s-.124-.309-.194-.459a2.336,2.336,0,0,1-.1-.221l-.229-.476a2,2,0,0,0-.1-.194c-.088-.168-.168-.335-.265-.494a1.4,1.4,0,0,0-.088-.159c-.1-.185-.194-.362-.3-.538a.36.36,0,0,0-.062-.1c-.115-.2-.238-.406-.362-.609h0c-1-1.65-2.117-3.264-2.938-4.941-1.438-2.973-1.906-6.317-2.867-9.475s-2.647-6.37-5.514-7.87c-1.376-.715-3.229-1.332-3.361-2.9a3.252,3.252,0,0,1,.353-1.473,17.885,17.885,0,0,1,1.438-2.911c.2-.344.423-.679.653-1.006l.176-.247c.176-.247.353-.485.547-.723l.229-.291c.185-.221.371-.441.573-.653l.229-.265q.406-.441.882-.882a2.123,2.123,0,0,0,.618-.785,2.525,2.525,0,0,0,0-.935c-.15-2.514,1.182-4.87,2.647-6.9s3.194-3.952,4.023-6.334c.1-.274.176-.547.247-.82a1.372,1.372,0,0,1,.062-.273c.018-.088.088-.379.124-.565s0-.221.044-.326a2.63,2.63,0,0,0,.062-.521,2.2,2.2,0,0,0,0-.344,4.934,4.934,0,0,0,0-.512v-1.2l-.053-.556v-.309a4.176,4.176,0,0,0-.088-.644v-.212l-.159-.882h0a44.927,44.927,0,0,0-1.623-5.514,19.678,19.678,0,0,0-1.341-3.211c.326-.062.653-.141.979-.229-.2-.379-.529-.821-.715-1.253A32.526,32.526,0,0,0,437.6,410.5a43.414,43.414,0,0,0,.926-7.561c.494-7.631.979-15.307.353-22.938v-.291a19.363,19.363,0,0,0,.053-4.949,20.757,20.757,0,0,0-2.779-9.113c-1.7-2.7-4.535-5.073-7.675-5.391a11.612,11.612,0,0,1-1.711,1.579,6.761,6.761,0,0,1-1.994-3.105A16.965,16.965,0,0,0,438.99,343.89c0-.282.053-.565.071-.882v-3.185a3.8,3.8,0,0,0-.079-.626v-.132a3.487,3.487,0,0,0-.124-.662v-.062l-.159-.706h0a17.294,17.294,0,0,0-1.861-4.57,17.358,17.358,0,0,0,1.341-4.914c0-.3.062-.609.079-.882v-1.711a17.194,17.194,0,0,0-4.764-11.337,10.936,10.936,0,0,0,.882-1.817h0l.185-.556h0c.053-.176.1-.362.141-.538v-.044a3.516,3.516,0,0,1,.106-.512.247.247,0,0,0,0-.088,4.791,4.791,0,0,1,.088-.591c.026-.2.044-.415.053-.626a1.431,1.431,0,0,0,0-.194v-.423a1.847,1.847,0,0,0,0-.221V308a10.454,10.454,0,1,0-20.7,2.735,17.045,17.045,0,0,0-9.449,13.357,17.4,17.4,0,0,0-.1,2.867,17.164,17.164,0,0,0-2.647,7.94h0v1.394a17.158,17.158,0,0,0,6.59,13.56,12.015,12.015,0,0,0,3.335,3.529,14.139,14.139,0,0,1,.529,2.214,6.706,6.706,0,0,1-2.02,5.47c-.379.326-.812.591-1.2.882a2.278,2.278,0,0,0-1.235,0c-4.544,1.429-8.9,4.261-11,8.6a15.662,15.662,0,0,0-1.085,3.07l-.256.37a44.272,44.272,0,0,0-5.876,14.116c-.573,2.567-.935,5.241-2.135,7.578a7.1,7.1,0,0,0-.688,1.535,14.566,14.566,0,0,0-.106,2.488c-.132,1.5-1,2.832-1.3,4.305-.168.882-.132,1.764-.291,2.647a27.768,27.768,0,0,1-1.641,4.411c-.944,2.594-.935,5.443-1.632,8.117a2.654,2.654,0,0,1-.547,1.2,6.039,6.039,0,0,1-1.835.988,4.1,4.1,0,0,0-1.844,2.77,12.425,12.425,0,0,0-.062,3.432l.344,4.482c-1.668.494-3.335,1.006-5,1.517l-8.222,2.514a24.252,24.252,0,0,0-6.837,2.885,12.355,12.355,0,0,0-4.3,5.214,26.008,26.008,0,0,0-1.6,6.828,103.533,103.533,0,0,1-4.482,19.33c-.168.485-.335.962-.521,1.438h0c-.176.476-.362.944-.556,1.412a.828.828,0,0,1-.124.291c-.15.371-.309.75-.476,1.12s-.432.944-.653,1.412l19.25,6.414a4.913,4.913,0,0,0,.088.75c.662,4.729.335,9.537.953,14.266a9.41,9.41,0,0,0,.538,2.311,3.229,3.229,0,0,0-1.006,1.606,8.292,8.292,0,0,0-.1,3.061c.212,2.417.432,4.843.653,7.261a11.257,11.257,0,0,1,0,2.647c-.247,1.6-1.156,2.991-1.659,4.526s-.485,3.476.785,4.411a3.169,3.169,0,0,0,3.035.273,7.125,7.125,0,0,0,2.506-1.941c3.882-4.3,5.611-10.119,8.628-15.077a29.724,29.724,0,0,0,2.064-3.6c.406-.962.671-1.985,1.006-2.973a28.877,28.877,0,0,1,1.667-3.873c.353-.715,1.765-2.435,1.438-3.238-.494-1.359-5.779-2.567-7.058-2.982a3.469,3.469,0,0,0-2.585-.124,1.732,1.732,0,0,0-.344.229c-.15-1.941-.309-3.882-.459-5.832.785-.062,1.562-.168,2.338-.291,0-1.094-.053-2.206-.079-3.308s-.053-2.029-.071-3.044c-.053-2.461-.106-4.932-.176-7.358a38.33,38.33,0,0,0-.273-4.279c-.3-2.17-.962-4.279-1.165-6.458a2.4,2.4,0,0,1,1.085-.5h0a7.785,7.785,0,0,1,1.879-.062h.485a16.148,16.148,0,0,0,7.8-2.144c2.417-1.27,4.667-2.85,7.058-4.138.3-.168.6-.318.882-.476l.326-.168.565-.273.476-.229.106-.053c1.4-.671,2.823-1.323,4.182-2.047a4.605,4.605,0,0,0,.291.423,2.8,2.8,0,0,0,2.938,1.068c-1.659,4.014-3.617,7.94-4.12,12.246-.715,6.264,1.764,12.4,4.244,18.183l7.852,18.527c.882,2.038,2.02,4.341,4.155,4.826a6.18,6.18,0,0,0,3.944-.794,74.154,74.154,0,0,0,10.111-6.449l.123.1c2.982,2.347,4.835,5.629,6.89,8.752l5.505,9.043a2.643,2.643,0,0,0,.22,1.323,7.479,7.479,0,0,0,1.544,1.994,26.094,26.094,0,0,1,6.608,13.542,8.474,8.474,0,0,0,1.094,3.7c1.482,2.047,4.614,1.914,6.837.741a4.5,4.5,0,0,0,1.712-1.4,5.828,5.828,0,0,0,.688-2.144,30.094,30.094,0,0,0,.662-5.682C461.478,523.761,460.146,520.311,459.5,516.765ZM427.953,350.533c.379-.265.75-.538,1.112-.829a17,17,0,0,1-3.529,6.052h0c-.371.406-.768.794-1.173,1.164v-.282c-.053-.882,0-1.862,0-2.8A11.932,11.932,0,0,0,427.953,350.533ZM396.8,420.151c0-.062.044-.115.062-.176a3.529,3.529,0,0,1,.8.829,3.31,3.31,0,0,0,.115,2.991c.468.776,1.3,1.5,1.112,2.391s-1.306,1.235-2.223,1.385c-1.2.194-2.391.423-3.591.662a.183.183,0,0,0,0-.062,9.252,9.252,0,0,0-.4-2.938C394.736,424.35,396,422.25,396.8,420.151Z" transform="translate(-40.67 -35.128)" fill="url(#linear-gradient)"/>
    <g id="Layer_2" data-name="Layer 2" transform="translate(234.98 143.317)">
      <text id="VendMO" transform="translate(0 145)" fill="#38d39f" font-size="153" font-family="Roboto-Thin, Roboto" font-weight="200" letter-spacing="-0.049em"><tspan x="0" y="0">Vend</tspan><tspan y="0" font-family="Roboto-Black, Roboto" font-weight="800">MO</tspan></text>
    </g>
    <path id="Path_14" data-name="Path 14" d="M441.073,317.869a10.472,10.472,0,1,0-19.3-3.441,16.868,16.868,0,0,0-9.564,16,16.833,16.833,0,1,0,30.94,9.184v-.794a16.833,16.833,0,0,0-2.047-20.944Z" transform="translate(-48.223 -35.565)" fill="#3f3d56"/>
    <g id="Group_3" data-name="Group 3" transform="translate(361.195 275.572)" opacity="0.1">
      <path id="Path_15" data-name="Path 15" d="M423.25,313.027l.141-.071a3.71,3.71,0,0,0-.079-.547v.115C423.312,312.569,423.268,312.825,423.25,313.027Z" transform="translate(-411.04 -312.357)"/>
      <path id="Path_16" data-name="Path 16" d="M445.723,332.4a16.677,16.677,0,0,1-2.647,7.173v.8a16.833,16.833,0,0,1-33.613,1.359c0,.45-.053.882-.053,1.367a16.833,16.833,0,1,0,33.666,0v-.794a16.767,16.767,0,0,0,2.647-10.587A2.191,2.191,0,0,1,445.723,332.4Z" transform="translate(-409.41 -314.631)"/>
      <path id="Path_17" data-name="Path 17" d="M446.666,312.35a10.4,10.4,0,0,1-1.376,4.005c.291.3.573.618.838.944a10.408,10.408,0,0,0,.556-2.311A10.6,10.6,0,0,0,446.666,312.35Z" transform="translate(-413.635 -312.35)"/>
    </g>
    <path id="Path_18" data-name="Path 18" d="M368.259,522.383a7.745,7.745,0,0,0,.768,2.753,3.078,3.078,0,0,0,2.232,1.641,4.531,4.531,0,0,0,2.461-.714,8.444,8.444,0,0,0,3.838-3.194,8.7,8.7,0,0,0,.521-4.817l-1.006-12.837c-2.426-.062-4.861-.062-7.287.071s-2.814.7-2.479,3.035C367.968,512.987,367.641,517.716,368.259,522.383Z" transform="translate(-43.245 -59.485)" fill="#fbbebe"/>
    <path id="Path_19" data-name="Path 19" d="M447.815,532.446l5.805,9.352a2.274,2.274,0,0,0,1.253,1.182,2.005,2.005,0,0,0,1.209-.212,14.98,14.98,0,0,0,4.808-3.988,8.966,8.966,0,0,0,2.311-3.529A4.535,4.535,0,0,0,462.045,531a14.777,14.777,0,0,0-2.179-1.553c-4.552-3.07-6.617-8.919-11.116-12.078a1.715,1.715,0,0,0-.882-.388,1.818,1.818,0,0,0-.935.309l-6.176,3.335c-2.647,1.456-1.817,1.623.2,3.194C443.933,526.129,445.795,529.367,447.815,532.446Z" transform="translate(-51.71 -60.875)" fill="#fbbebe"/>
    <path id="Path_20" data-name="Path 20" d="M380.676,516.229a3.58,3.58,0,0,0-2.594-.124,2.887,2.887,0,0,0-1.35,2.126,25.974,25.974,0,0,1-.379,2.585,8.651,8.651,0,0,1-2.514,3.529,3.672,3.672,0,0,1-1.579,1.094c-.829.212-1.712-.177-2.558,0a2.769,2.769,0,0,0-2.02,2.055,8.3,8.3,0,0,0-.106,3.026l.662,7.155a10.887,10.887,0,0,1,0,2.647c-.247,1.57-1.156,2.955-1.667,4.411s-.476,3.441.794,4.411a3.17,3.17,0,0,0,3.035.273,7,7,0,0,0,2.514-1.915c3.882-4.235,5.62-9.969,8.646-14.866a29.641,29.641,0,0,0,2.064-3.529c.415-.953.679-1.958,1.015-2.947a29.775,29.775,0,0,1,1.659-3.811c.362-.706,1.765-2.4,1.447-3.185C387.275,517.852,381.981,516.643,380.676,516.229Z" transform="translate(-43.134 -60.75)" fill="#3f3d56"/>
    <path id="Path_21" data-name="Path 21" d="M461.185,537.306a7.351,7.351,0,0,1-4.085,3.529,3.635,3.635,0,0,0-1.394.723,2.171,2.171,0,0,0-.238,2.356,7.567,7.567,0,0,0,1.544,1.976,25.444,25.444,0,0,1,6.626,13.348,8.243,8.243,0,0,0,1.094,3.635c1.482,2.02,4.623,1.888,6.846.741a4.345,4.345,0,0,0,1.712-1.394,5.6,5.6,0,0,0,.7-2.109,29.978,29.978,0,0,0,.662-5.6c0-3.529-1.385-6.952-2.02-10.454-.882-4.967-.45-10.313-2.761-14.8a3.322,3.322,0,0,0-1.059-1.323,3.683,3.683,0,0,0-1.879-.424q-3.132-.132-6.273-.053a1.359,1.359,0,0,0-1.341,2.285C460.629,532.242,462.72,534.271,461.185,537.306Z" transform="translate(-53.611 -62.101)" fill="#3f3d56"/>
    <path id="Path_22" data-name="Path 22" d="M398.641,437.281a3.219,3.219,0,0,0-.759,4.076c.459.768,1.288,1.482,1.112,2.356s-1.315,1.226-2.232,1.367c-8.1,1.288-15.986,3.661-23.82,6.026l-8.24,2.479a24.457,24.457,0,0,0-6.837,2.85,12.289,12.289,0,0,0-4.314,5.143,25.589,25.589,0,0,0-1.6,6.723c-1.235,8.417-2.814,16.921-6.573,24.553l19.939,6.555a29.43,29.43,0,0,0,5.982,1.509,22.661,22.661,0,0,0,5.832-.282c-.124-4.464-.194-9.061-.318-13.525a37.67,37.67,0,0,0-.282-4.217c-.291-2.135-.962-4.217-1.165-6.361.882-.759,2.259-.573,3.458-.538a16.241,16.241,0,0,0,7.808-2.117c2.426-1.253,4.676-2.806,7.058-4.085,4.014-2.117,8.584-3.529,11.646-6.9-1.562,5.946-5.249,11.134-5.964,17.248s1.765,12.219,4.252,17.927l7.861,18.245c.882,2.011,2.02,4.279,4.164,4.764a6.316,6.316,0,0,0,3.944-.785c7.234-3.388,13.022-9.758,20.75-11.8-.573-3.829-3.6-6.987-5.293-10.455-1.438-2.929-1.914-6.176-2.876-9.343s-2.647-6.273-5.523-7.755c-1.376-.706-3.238-1.315-3.37-2.858a3.413,3.413,0,0,1,.309-1.438,18.734,18.734,0,0,1,4.7-6.846,2.011,2.011,0,0,0,.618-.776,2.269,2.269,0,0,0,.044-.882c-.141-2.488,1.191-4.808,2.647-6.8s3.194-3.9,4.032-6.246c1.438-4.032,0-8.452-1.412-12.492a12.512,12.512,0,0,0-2.356-4.57c-1.853-1.985-4.738-2.558-7.428-2.85C415.791,434.184,405.566,431.908,398.641,437.281Z" transform="translate(-40.675 -51.085)" fill="#3f3d56"/>
    <g id="Group_4" data-name="Group 4" transform="translate(304.687 385.923)" opacity="0.1">
      <path id="Path_23" data-name="Path 23" d="M442.076,456.826c-1.482,1.994-2.814,4.323-2.647,6.8a2.269,2.269,0,0,1-.044.882,1.954,1.954,0,0,1-.618.776,18.734,18.734,0,0,0-4.729,6.855,3.411,3.411,0,0,0-.309,1.438,2.77,2.77,0,0,0,1.764,2.056,18.847,18.847,0,0,1,3.264-3.97,2.011,2.011,0,0,0,.618-.776,2.27,2.27,0,0,0,.044-.882c-.141-2.488,1.191-4.808,2.647-6.8s3.194-3.9,4.032-6.246a12.859,12.859,0,0,0,.212-7.058c-.062.238-.132.459-.212.688C445.27,452.926,443.558,454.823,442.076,456.826Z" transform="translate(-355.767 -438.898)"/>
      <path id="Path_24" data-name="Path 24" d="M404.72,438.912a1.693,1.693,0,0,0,1.262-1.147,1.069,1.069,0,0,0,0-.335l-.371.273A2.928,2.928,0,0,0,404.72,438.912Z" transform="translate(-352.35 -437.43)"/>
      <path id="Path_25" data-name="Path 25" d="M371.324,501.676a29.432,29.432,0,0,1-5.982-1.509L347.7,494.38a51.056,51.056,0,0,1-2.338,5.6l19.956,6.555a29.429,29.429,0,0,0,5.982,1.509,22.662,22.662,0,0,0,5.832-.282c-.053-2.1-.106-4.226-.15-6.352A21.929,21.929,0,0,1,371.324,501.676Z" transform="translate(-345.36 -444.136)"/>
      <path id="Path_26" data-name="Path 26" d="M426.854,519.981a6.261,6.261,0,0,1-3.944.785c-2.144-.485-3.3-2.744-4.164-4.764l-7.861-18.245a50.247,50.247,0,0,1-4.12-12.457q-.079.45-.132.882c-.723,6.176,1.764,12.219,4.252,17.927l7.861,18.245c.882,2.011,2.02,4.279,4.164,4.764a6.315,6.315,0,0,0,3.944-.785c7.234-3.388,13.022-9.758,20.75-11.8a15.157,15.157,0,0,0-2.364-5.585C438.685,511.538,433.329,516.946,426.854,519.981Z" transform="translate(-352.561 -443.067)"/>
      <path id="Path_27" data-name="Path 27" d="M409.41,459.55c-3.061,3.353-7.631,4.782-11.646,6.908-2.417,1.27-4.667,2.832-7.058,4.076a16.24,16.24,0,0,1-7.808,2.117c-1.2,0-2.541-.221-3.458.538.194,1.985.767,3.908,1.094,5.876a10.586,10.586,0,0,1,2.364,0,16.24,16.24,0,0,0,7.808-2.117c2.426-1.253,4.676-2.806,7.058-4.085,2.647-1.394,5.523-2.5,8.064-4.041A68.77,68.77,0,0,0,409.41,459.55Z" transform="translate(-349.373 -440.035)"/>
    </g>
    <path id="Path_28" data-name="Path 28" d="M420.727,365.21a6.591,6.591,0,0,1-2.029,5.4c-.494.406-1.059.723-1.535,1.147a4.149,4.149,0,0,0,.609,6.3c1.588.97,3.608.706,5.443.388a31.98,31.98,0,0,0,7.137-1.862,11.934,11.934,0,0,0,5.638-4.614,6.917,6.917,0,0,1-3.211-5.735c-.115-2.285.512-4.879-.944-6.652s-4.014-1.7-6.176-1.112c-1.068.291-2.1.7-3.167.988-.538.15-2.329.15-2.647.547C419.2,360.755,420.666,364.063,420.727,365.21Z" transform="translate(-48.99 -42.165)" fill="#fbbebe"/>
    <path id="Path_29" data-name="Path 29" d="M420.727,365.21a6.591,6.591,0,0,1-2.029,5.4c-.494.406-1.059.723-1.535,1.147a4.149,4.149,0,0,0,.609,6.3c1.588.97,3.608.706,5.443.388a31.98,31.98,0,0,0,7.137-1.862,11.934,11.934,0,0,0,5.638-4.614,6.917,6.917,0,0,1-3.211-5.735c-.115-2.285.512-4.879-.944-6.652s-4.014-1.7-6.176-1.112c-1.068.291-2.1.7-3.167.988-.538.15-2.329.15-2.647.547C419.2,360.755,420.666,364.063,420.727,365.21Z" transform="translate(-48.99 -42.165)" opacity="0.1"/>
    <circle id="Ellipse_10" data-name="Ellipse 10" cx="11.831" cy="11.831" r="11.831" transform="translate(366.029 299.26)" fill="#fbbebe"/>
    <path id="Path_30" data-name="Path 30" d="M385.621,454.812a7.934,7.934,0,0,1-1.112,2.647,12.349,12.349,0,0,0-1.412,8.073,8.539,8.539,0,0,0,4.976,6.29,3.422,3.422,0,0,0,3.388-.212c-1.579-2.056-1.659-4.87-1.57-7.455a2.475,2.475,0,0,1,.335-1.385.883.883,0,0,1,1.225-.234l.019.013a11.392,11.392,0,0,0,.926,4.746c.247.573.679,1.218,1.306,1.2.882,0,1.147-1.244,1.112-2.144-.141-3.67-.318-7.49-2.091-10.71a12.85,12.85,0,0,1-1.764-3.6,2.11,2.11,0,0,0-.45-1.262,1.706,1.706,0,0,0-.662-.318c-1.023-.282-3.432-1.182-4.27-.229S385.771,453.6,385.621,454.812Z" transform="translate(-45.097 -52.965)" fill="#fbbebe"/>
    <path id="Path_31" data-name="Path 31" d="M403.035,384.238c-1.35-.15-2.426,1.094-3.167,2.232a43.328,43.328,0,0,0-5.885,13.957c-.573,2.541-.935,5.17-2.135,7.473a7.117,7.117,0,0,0-.7,1.517,14.979,14.979,0,0,0-.106,2.444c-.132,1.482-1,2.8-1.3,4.244-.176.882-.141,1.764-.291,2.647a26.412,26.412,0,0,1-1.65,4.332c-.944,2.559-.935,5.364-1.623,8a2.876,2.876,0,0,1-.547,1.191,6.344,6.344,0,0,1-1.844.97,4,4,0,0,0-1.844,2.726,11.787,11.787,0,0,0-.062,3.388l.538,7c.565-.229.926-.882,1.394-1.253a3.894,3.894,0,0,1,3.211-.353l1.588.282c1.632.3,3.405.679,4.455,1.959.829-1.3.353-3.211,1.632-4.076.415-.282.926-.379,1.367-.626a3.046,3.046,0,0,0,1.394-2.453,8.96,8.96,0,0,0-.406-2.894c2.047-.882,3.317-2.938,4.12-5.011a41.322,41.322,0,0,0,1.906-7.737c1.853-10.393,3.529-20.865,3.705-31.425a14.986,14.986,0,0,0-.573-5.24C405.637,385.888,404.79,384.441,403.035,384.238Z" transform="translate(-44.963 -45.242)" fill="#ffc107"/>
    <path id="Path_32" data-name="Path 32" d="M403.035,384.238c-1.35-.15-2.426,1.094-3.167,2.232a43.328,43.328,0,0,0-5.885,13.957c-.573,2.541-.935,5.17-2.135,7.473a7.117,7.117,0,0,0-.7,1.517,14.979,14.979,0,0,0-.106,2.444c-.132,1.482-1,2.8-1.3,4.244-.176.882-.141,1.764-.291,2.647a26.412,26.412,0,0,1-1.65,4.332c-.944,2.559-.935,5.364-1.623,8a2.876,2.876,0,0,1-.547,1.191,6.344,6.344,0,0,1-1.844.97,4,4,0,0,0-1.844,2.726,11.787,11.787,0,0,0-.062,3.388l.538,7c.565-.229.926-.882,1.394-1.253a3.894,3.894,0,0,1,3.211-.353l1.588.282c1.632.3,3.405.679,4.455,1.959.829-1.3.353-3.211,1.632-4.076.415-.282.926-.379,1.367-.626a3.046,3.046,0,0,0,1.394-2.453,8.96,8.96,0,0,0-.406-2.894c2.047-.882,3.317-2.938,4.12-5.011a41.322,41.322,0,0,0,1.906-7.737c1.853-10.393,3.529-20.865,3.705-31.425a14.986,14.986,0,0,0-.573-5.24C405.637,385.888,404.79,384.441,403.035,384.238Z" transform="translate(-44.963 -45.242)" opacity="0.1"/>
    <path id="Path_33" data-name="Path 33" d="M435.012,371.41a14.831,14.831,0,0,1-7.19,4.173,44.1,44.1,0,0,1-8.328,1.226,5.076,5.076,0,0,1-2.576-.221,1.765,1.765,0,0,1-1.076-2.108,2.266,2.266,0,0,0,.309-.821c0-.723-1.076-.776-1.764-.565-4.552,1.4-8.919,4.191-11.019,8.469a25.576,25.576,0,0,0-1.95,7.8c-1,7.058-1.985,14.178-.653,21.174.706,3.705,2.064,7.323,2.153,11.1.044,2.117-.309,4.217-.291,6.334a3.166,3.166,0,0,0,.556,2.091c.326.379.82.626,1.05,1.067.388.75-.124,1.764.379,2.453.618.82,1.914.229,2.761-.353a22.057,22.057,0,0,1,14.68-3.723c6.176.67,12.351,3.97,18.377,2.32a9.548,9.548,0,0,1-.8-1.429c-3-9.855-2.8-20.865,1.694-30.137,1.535-3.167,3.529-6.176,4.155-9.652a18.2,18.2,0,0,0,.053-4.9,20.2,20.2,0,0,0-2.779-8.981C440.994,374.066,438.162,371.719,435.012,371.41Z" transform="translate(-47.121 -43.733)" fill="#ffc107"/>
    <path id="Path_34" data-name="Path 34" d="M407.147,458.437a10.7,10.7,0,0,0-.679,4.023,22.558,22.558,0,0,0,.194,3.935,6.3,6.3,0,0,0,1.147,3.088,2.849,2.849,0,0,0,2.956,1.05,3.1,3.1,0,0,0,1.765-1.985,18.3,18.3,0,0,0,.556-2.7c.521-2.647,1.932-5.205,1.95-7.94a2.034,2.034,0,0,0-.15-.944,5.347,5.347,0,0,0-4.252-2.2C409.114,455,407.7,457.141,407.147,458.437Z" transform="translate(-47.867 -53.547)" fill="#fbbebe"/>
    <path id="Path_35" data-name="Path 35" d="M441.39,382.73c-.238,2.347,2.038,4.12,2.938,6.308a10.7,10.7,0,0,1,.626,3.176c.626,7.517.141,15.077-.353,22.612a43.139,43.139,0,0,1-.882,7.455c-1.27,5.143-4.411,9.608-7.455,13.931a11.383,11.383,0,0,1-1.606,1.95,11.873,11.873,0,0,1-2.964,1.817l-10.6,5.082a20.554,20.554,0,0,0-3.732,2.144,10.318,10.318,0,0,0-3.088,4.023c-2.038-1.041-4.155-1.976-6.176-3.017-.476-.238-1.006-.556-1.085-1.085-.115-.715.626-1.217,1.138-1.764.953-.944,1.253-2.347,1.764-3.591,1.694-4.049,5.946-6.643,7.481-10.763.582-1.579.768-3.361,1.809-4.693a11.983,11.983,0,0,1,2-1.764A33.316,33.316,0,0,0,425.625,420a7.721,7.721,0,0,0,1.456-2.126,10.729,10.729,0,0,0,.344-3.723c.079-4.111,1.932-7.94,3.07-11.884,1.068-3.723,1.517-7.622,2.92-11.222S437.6,383.692,441.39,382.73Z" transform="translate(-47.932 -45.066)" opacity="0.1"/>
    <path id="Path_36" data-name="Path 36" d="M442.9,382.73c-.238,2.347,2.038,4.12,2.938,6.308a10.39,10.39,0,0,1,.618,3.176c.635,7.517.141,15.077-.344,22.612a43.2,43.2,0,0,1-.935,7.455c-1.27,5.143-4.411,9.608-7.455,13.931a9.01,9.01,0,0,1-4.561,3.767l-10.5,5.082a20.291,20.291,0,0,0-3.732,2.144,10.243,10.243,0,0,0-3.088,4.023c-2.038-1.041-4.155-1.976-6.176-3.017-.476-.238-1.006-.556-1.094-1.085-.106-.715.635-1.217,1.147-1.764.953-.944,1.244-2.347,1.764-3.591,1.694-4.049,5.946-6.643,7.473-10.763.591-1.579.776-3.361,1.817-4.693a11.981,11.981,0,0,1,2-1.764A33.944,33.944,0,0,0,427.184,420a7.509,7.509,0,0,0,1.447-2.126,10.5,10.5,0,0,0,.344-3.723c.079-4.111,1.941-7.94,3.079-11.884,1.068-3.723,1.517-7.622,2.92-11.222S439.147,383.692,442.9,382.73Z" transform="translate(-48.115 -45.066)" fill="#ffc107"/>
    <path id="Path_37" data-name="Path 37" d="M433.577,331.874a16.809,16.809,0,0,0-10.507,2.17,12.82,12.82,0,0,1,1.412.106,16.833,16.833,0,0,1,6.449,31.249,16.833,16.833,0,0,0,2.647-33.525Z" transform="translate(-49.824 -39.062)" fill="#3f3d56"/>
    <path id="Path_38" data-name="Path 38" d="M437.916,341.8a7.709,7.709,0,0,1,.132,5.893,5.638,5.638,0,0,0-.282-.723c-2.073-4.623-8.487-6.537-14.31-4.279a11.779,11.779,0,0,0-6.917,6.59c-1.482-4.473,1.535-9.616,7.058-11.769C429.421,335.283,435.834,337.171,437.916,341.8Z" transform="translate(-49.011 -39.631)" fill="#3f3d56"/>
    <g id="Group_5" data-name="Group 5" transform="translate(373.22 268.303)" opacity="0.1">
      <path id="Path_39" data-name="Path 39" d="M438.753,346.822A16.843,16.843,0,0,0,427.5,332.3a17.014,17.014,0,0,0-4.464,1.809,12.818,12.818,0,0,1,1.411.106A16.842,16.842,0,0,1,438.753,346.822Z" transform="translate(-423.04 -307.43)"/>
      <path id="Path_40" data-name="Path 40" d="M441.883,332.9a16.861,16.861,0,0,0-11.249-14.522,16.871,16.871,0,0,0-4.464,1.809,9.442,9.442,0,0,1,1.4.106A16.84,16.84,0,0,1,441.883,332.9Z" transform="translate(-423.409 -305.79)"/>
      <path id="Path_41" data-name="Path 41" d="M442.764,312.871a10.181,10.181,0,0,0-6.793-8.761,10.276,10.276,0,0,0-2.691,1.094,4.411,4.411,0,0,1,.882.062A10.172,10.172,0,0,1,442.764,312.871Z" transform="translate(-424.246 -304.11)"/>
      <path id="Path_42" data-name="Path 42" d="M448.9,346.18a16.851,16.851,0,0,1-13.039,17.777,16.887,16.887,0,0,1-3.891,3.141A16.823,16.823,0,0,0,448.9,346.18Z" transform="translate(-424.092 -309.064)"/>
    </g>
    <ellipse id="Ellipse_11" data-name="Ellipse 11" cx="41.015" cy="7.887" rx="41.015" ry="7.887" transform="translate(839.253 598.304)" fill="#ffc107"/>
    <ellipse id="Ellipse_12" data-name="Ellipse 12" cx="4.773" cy="6.255" rx="4.773" ry="6.255" transform="translate(874.807 596.584)" fill="#3f3d56"/>
    <ellipse id="Ellipse_13" data-name="Ellipse 13" cx="4.773" cy="6.255" rx="4.773" ry="6.255" transform="translate(874.807 588.943)" fill="#3f3d56"/>
    <ellipse id="Ellipse_14" data-name="Ellipse 14" cx="4.773" cy="6.255" rx="4.773" ry="6.255" transform="translate(874.807 581.294)" fill="#3f3d56"/>
    <ellipse id="Ellipse_15" data-name="Ellipse 15" cx="4.773" cy="6.255" rx="4.773" ry="6.255" transform="translate(874.807 573.654)" fill="#3f3d56"/>
    <ellipse id="Ellipse_16" data-name="Ellipse 16" cx="4.773" cy="6.255" rx="4.773" ry="6.255" transform="translate(874.807 566.014)" fill="#3f3d56"/>
    <ellipse id="Ellipse_17" data-name="Ellipse 17" cx="4.773" cy="6.255" rx="4.773" ry="6.255" transform="translate(874.807 558.374)" fill="#3f3d56"/>
    <ellipse id="Ellipse_18" data-name="Ellipse 18" cx="4.773" cy="6.255" rx="4.773" ry="6.255" transform="translate(874.807 550.734)" fill="#3f3d56"/>
    <path id="Path_43" data-name="Path 43" d="M1011.784,567.159a23.041,23.041,0,0,0,1.765-2.647l-12.554-2.056,13.578.1a22.938,22.938,0,0,0,.432-18.121l-18.209,9.44,16.762-12.351a22.876,22.876,0,1,0-37.786,25.585,22.861,22.861,0,0,0-2.647,4.173l16.295,8.461-17.371-5.823a22.858,22.858,0,0,0,3.688,21.474,22.876,22.876,0,1,0,35.96,0,22.867,22.867,0,0,0,0-28.285Z" transform="translate(-114.33 -62.416)" fill="#ffc107"/>
    <path id="Path_44" data-name="Path 44" d="M970.98,588.064a22.735,22.735,0,0,0,4.9,14.116,22.876,22.876,0,1,0,35.96,0C1014.871,598.3,970.98,585.479,970.98,588.064Z" transform="translate(-114.346 -69.206)" opacity="0.1"/>
    <ellipse id="Ellipse_19" data-name="Ellipse 19" cx="41.015" cy="7.887" rx="41.015" ry="7.887" transform="translate(122.876 598.304)" fill="#ffc107"/>
    <ellipse id="Ellipse_20" data-name="Ellipse 20" cx="4.773" cy="6.255" rx="4.773" ry="6.255" transform="translate(158.43 596.584)" fill="#3f3d56"/>
    <ellipse id="Ellipse_21" data-name="Ellipse 21" cx="4.773" cy="6.255" rx="4.773" ry="6.255" transform="translate(158.43 588.943)" fill="#3f3d56"/>
    <ellipse id="Ellipse_22" data-name="Ellipse 22" cx="4.773" cy="6.255" rx="4.773" ry="6.255" transform="translate(158.43 581.294)" fill="#3f3d56"/>
    <ellipse id="Ellipse_23" data-name="Ellipse 23" cx="4.773" cy="6.255" rx="4.773" ry="6.255" transform="translate(158.43 573.654)" fill="#3f3d56"/>
    <ellipse id="Ellipse_24" data-name="Ellipse 24" cx="4.773" cy="6.255" rx="4.773" ry="6.255" transform="translate(158.43 566.014)" fill="#3f3d56"/>
    <ellipse id="Ellipse_25" data-name="Ellipse 25" cx="4.773" cy="6.255" rx="4.773" ry="6.255" transform="translate(158.43 558.374)" fill="#3f3d56"/>
    <ellipse id="Ellipse_26" data-name="Ellipse 26" cx="4.773" cy="6.255" rx="4.773" ry="6.255" transform="translate(158.43 550.734)" fill="#3f3d56"/>
    <path id="Path_45" data-name="Path 45" d="M199.787,567.158a23.066,23.066,0,0,0,1.764-2.647L189,562.456l13.578.1a22.938,22.938,0,0,0,.432-18.121l-18.209,9.44,16.763-12.351a22.877,22.877,0,1,0-37.786,25.585,22.873,22.873,0,0,0-2.647,4.173l16.366,8.469-17.371-5.823a22.861,22.861,0,0,0,3.705,21.465,22.877,22.877,0,1,0,35.96,0,22.867,22.867,0,0,0,0-28.285Z" transform="translate(-18.71 -62.416)" fill="#ffc107"/>
    <path id="Path_46" data-name="Path 46" d="M158.98,588.064a22.736,22.736,0,0,0,4.9,14.116,22.877,22.877,0,1,0,35.96,0C202.871,598.3,158.98,585.479,158.98,588.064Z" transform="translate(-18.724 -69.206)" opacity="0.1"/>
  </g>
</svg>
